<?xml version="1.0" encoding="utf-8"?>
<svg version="1.1" id="Layer_1"
xmlns="http://www.w3.org/2000/svg"
xmlns:xlink="http://www.w3.org/1999/xlink"
xmlns:author="http://www.sothink.com"
width="548px" height="596px"
xml:space="preserve">
<g id="PathID_145" transform="matrix(0.0352941, 0, 0, 0.0352941, 48, 37.8)">
<path style="fill:#FFFFFF;fill-opacity:1" d="M173.5 -182l26 -388.5l0 -162.5l-111.5 0l0 162.5q14 194.5 27.5 388.5l58 0M195.5 0l0 -102.5l-103.5 0l0 102.5l103.5 0" />
</g>
<g id="PathID_146" transform="matrix(0.0352941, 0, 0, 0.0352941, 96, 37.8)">
<path style="fill:#FFFFFF;fill-opacity:1" d="M127 -473.5q11.5 -69.5 22.5 -139.5l0 -120l-102.5 0l0 120l25 139.5l55 0M291.5 -473.5l24 -139.5l0 -120l-102.5 0l0 120l24.5 139.5l54 0" />
</g>
<g id="PathID_147" transform="matrix(0.0352941, 0, 0, 0.0352941, 144, 37.8)">
<path style="fill:#FFFFFF;fill-opacity:1" d="M126.5 12.5q22 -106.5 43.5 -213l157 0l-43 213l75 0q22 -106.5 43.5 -213l154 0l0 -74.5l-139 0q19 -90.5 37.5 -181.5l101.5 0l0 -74.5l-86.5 0q22 -107 43.5 -214.5l-75.5 0q-21.5 107.5 -43.5 214.5l-157.5 0q22 -107 43.5 -214.5l-75 0q-21.5 107.5 -43.5 214.5l-151.5 0l0 74.5l136.5 0l-37 181.5l-99.5 0l0 74.5l84.5 0q-21.5 106.5 -43.5 213l75 0M222 -456.5l157.5 0q-18.5 91 -37.5 181.5l-157 0l37 -181.5" />
</g>
<g id="PathID_148" transform="matrix(0.0352941, 0, 0, 0.0352941, 192, 37.8)">
<path style="fill:#FFFFFF;fill-opacity:1" d="M308 105.5l0 -91q94.5 -4.5 154 -67q59.5 -62.5 59.5 -156q0 -42.5 -14 -79q-14.5 -36.5 -41 -63q-26.5 -26.5 -68.5 -45q-45 -13 -90 -26.5l0 -259.5q44 9 69.5 37.5q25 28 33 81l93 -14q-12 -85.5 -71 -134.5q-46 -38.5 -124.5 -46l0 -43l-53 0l0 43q-89.5 9 -135 49q-68 59.5 -68 155.5q0 54 23.5 96.5q23 42.5 66 66.5q58 32.5 113.5 43l0 286.5q-53 -5.5 -91 -53.5q-26.5 -34 -37 -106.5l-90.5 17q5 70 36 118.5q30.5 48.5 73 70.5q42 21.5 109.5 30l0 90l53 0M255 -433.5q-61.5 -18.5 -87 -49.5q-26 -31 -26 -77q0 -46.5 30.5 -80.5q30 -34 82.5 -42l0 249M308 -334.5q72.5 23.5 97 53.5q24 29.5 24 78.5q0 57.5 -34 96.5q-34.5 39 -87 45.5l0 -274" />
</g>
<g id="PathID_149" transform="matrix(0.0352941, 0, 0, 0.0352941, 240, 37.8)">
<path style="fill:#FFFFFF;fill-opacity:1" d="M104 -407.5q44 49.5 110.5 49.5q67 0 113 -50q45.5 -50.5 45.5 -143.5q0 -95.5 -45 -144.5q-45.5 -49.5 -114.5 -49.5q-75 0 -114.5 55q-39.5 55 -39.5 133.5q0 100 44.5 149.5M272 -654.5q22.5 28.5 22.5 99.5q0 77 -22 106q-22.5 29 -56.5 29q-33 0 -55.5 -28.5q-22.5 -29 -22.5 -99.5q0 -77.5 22.5 -106.5q22 -29 55.5 -29q33.5 0 56 29M291 27q200 -386 399.5 -772.5l-73 0l-401 772.5l74.5 0M578 -22.5q44 49.5 110.5 49.5q67.5 0 113.5 -50q45.5 -50.5 45.5 -143.5q0 -95.5 -45 -144.5q-45.5 -49.5 -114.5 -49.5q-75.5 0 -115 55q-39.5 54.5 -39.5 133.5q0 99.5 44.5 149.5M746.5 -269.5q22.5 28.5 22.5 99.5q0 77 -22 106q-22.5 29 -57 29q-33 0 -55.5 -29q-22.5 -29 -22.5 -99q0 -77.5 22.5 -106.5q22 -29 56 -29q33.5 0 56 29" />
</g>
<g id="PathID_150" transform="matrix(0.0352941, 0, 0, 0.0352941, 288, 37.8)">
<path style="fill:#FFFFFF;fill-opacity:1" d="M599 17q30.5 -35.5 60.5 -71.5q-64 -45.5 -114.5 -112.5q41 -62 65 -158l-93.5 -20q-12.5 58 -35 102l-131.5 -167.5q138.5 -74 138.5 -178.5q0 -64.5 -47.5 -110.5q-48 -46 -123 -46q-78.5 0 -130 49q-52 48.5 -52 114.5q0 33 16.5 68.5q16.5 35.5 66 92.5q-87 41.5 -130.5 96.5q-44 54.5 -44 122.5q0 76.5 53.5 138.5q66 76 178.5 76q61 0 113.5 -24.5q52.5 -25 97 -74.5q58 68.5 112.5 103.5M263.5 -515q-17.5 -21 -26 -39.5q-9 -19 -9 -36q0 -34 24.5 -57.5q24 -23.5 60.5 -23.5q35.5 0 59.5 24q23.5 23.5 23.5 61q0 31.5 -17 57.5q-17.5 26 -76 60.5l-40 -46.5M361 -92q-43.5 25 -84 25q-65 0 -100.5 -48q-35.5 -48 -35.5 -92.5q0 -36.5 25.5 -73.5q25.5 -37.5 98.5 -81q82.5 102.5 165 204.5q-26 40 -69 65.5" />
</g>
<g id="PathID_151" transform="matrix(0.0352941, 0, 0, 0.0352941, 336, 37.8)">
<path style="fill:#FFFFFF;fill-opacity:1" d="M123.5 -473.5l24 -137l0 -122.5l-102.5 0l0 122.5l23 137l55.5 0" />
</g>
<g id="PathID_152" transform="matrix(0.0352941, 0, 0, 0.0352941, 384, 37.8)">
<path style="fill:#FFFFFF;fill-opacity:1" d="M304 215.5q-149.5 -240 -149.5 -480.5q0 -94.5 21.5 -188q17.5 -75 48 -144q19.5 -44.5 80 -148.5l-64.5 0q-94 125.5 -139 252q-38.5 109 -38.5 228q0 135 51.5 261q51.5 126 126 220l64.5 0" />
</g>
<g id="PathID_153" transform="matrix(0.0352941, 0, 0, 0.0352941, 432, 37.8)">
<path style="fill:#FFFFFF;fill-opacity:1" d="M252.5 -4.5q51.5 -126 51.5 -261q0 -119 -38.5 -228q-45 -126.5 -139 -252l-64.5 0q61 105 80.5 150q30.5 69 47.5 144q21.5 92.5 21.5 186.5q0 240.5 -149.5 480.5l64.5 0q74 -94 126 -220" />
</g>
<g id="PathID_154" transform="matrix(0.0352941, 0, 0, 0.0352941, 480, 37.8)">
<path style="fill:#FFFFFF;fill-opacity:1" d="M154.5 -570.5q-25 23 -83 94.5q29.5 21.5 59 42.5q28 -37 65 -107.5q39.5 68 68.5 107.5l60 -42.5q-55.5 -68 -86 -94.5q61 -7 124.5 -28l-23 -71q-66.5 22 -118 48q10 -74.5 11.5 -124l-72.5 0l10 124.5q-36 -20.5 -115.5 -48.5l-23 71l122.5 28" />
</g>
<g id="PathID_155" transform="matrix(0.0352941, 0, 0, 0.0352941, 0, 84)">
<path style="fill:#FFFFFF;fill-opacity:1" d="M341.5 -118.5l0 -201l199.5 0l0 -84l-199.5 0l0 -199.5l-85 0l0 199.5l-199.5 0l0 84l199.5 0l0 201l85 0" />
</g>
<g id="PathID_156" transform="matrix(0.0352941, 0, 0, 0.0352941, 48, 84)">
<path style="fill:#FFFFFF;fill-opacity:1" d="M142 0q-1.5 45.5 -15 70q-13.5 24 -42 36.5l25 38.5q43.5 -19 63.5 -53.5q20 -35 20 -91.5l0 -102.5l-102.5 0l0 102.5l51 0" />
</g>
<g id="PathID_157" transform="matrix(0.0352941, 0, 0, 0.0352941, 96, 84)">
<path style="fill:#FFFFFF;fill-opacity:1" d="M309 -220l0 -90.5l-276.5 0l0 90.5l276.5 0" />
</g>
<g id="PathID_158" transform="matrix(0.0352941, 0, 0, 0.0352941, 144, 84)">
<path style="fill:#FFFFFF;fill-opacity:1" d="M195.5 0l0 -102.5l-102.5 0l0 102.5l102.5 0" />
</g>
<g id="PathID_159" transform="matrix(0.0352941, 0, 0, 0.0352941, 192, 84)">
<path style="fill:#FFFFFF;fill-opacity:1" d="M72.5 12.5l212 -758l-72 0q-106 379 -212.5 758l72.5 0" />
</g>
<g id="PathID_160" transform="matrix(0.0352941, 0, 0, 0.0352941, 240, 84)">
<path style="fill:#FFFFFF;fill-opacity:1" d="M115 -63.5q60.5 76 166.5 76q80.5 0 133.5 -43q52.5 -43.5 79 -122.5q26.5 -79.5 26.5 -208.5q0 -109 -16.5 -173q-16.5 -64.5 -45.5 -109q-29 -45 -73.5 -68.5q-44.5 -24 -103.5 -24q-80 0 -132.5 43q-53 43 -79.5 122.5q-27 79 -27 209q0 206.5 72.5 298M181.5 -609q37 -52.5 99 -52.5q63 0 105.5 59.5q42 59.5 42 240.5q0 180 -42 240q-42.5 60 -104.5 60q-62 0 -104 -59.5q-42.5 -60 -42.5 -240.5q0 -180.5 46.5 -247.5" />
</g>
<g id="PathID_161" transform="matrix(0.0352941, 0, 0, 0.0352941, 288, 84)">
<path style="fill:#FFFFFF;fill-opacity:1" d="M381.5 -736l-58 0q-23.5 47.5 -80 98q-56.5 50.5 -132 86l0 87q42 -15.5 95 -46.5q52.5 -31 85 -62l0 573.5l90 0l0 -736" />
</g>
<g id="PathID_162" transform="matrix(0.0352941, 0, 0, 0.0352941, 336, 84)">
<path style="fill:#FFFFFF;fill-opacity:1" d="M156 -86.5q15 -24.5 38 -48.5l104 -92.5q97 -82 139 -129q41.5 -47 59.5 -89.5q18 -42.5 18 -86.5q0 -86.5 -61.5 -145q-61.5 -58.5 -167 -58.5q-104.5 0 -166.5 54.5q-62 54 -71.5 157.5l92.5 9.5q0.5 -69 39.5 -108q39 -39 104 -39q61.5 0 100 37q38 36.5 38 90q0 51 -42 108.5q-42 57 -161.5 155q-77 63 -117.5 111q-41 48 -59.5 97.5q-11.5 30 -10.5 62.5l484.5 0l0 -86.5l-359.5 0" />
</g>
<g id="PathID_163" transform="matrix(0.0352941, 0, 0, 0.0352941, 384, 84)">
<path style="fill:#FFFFFF;fill-opacity:1" d="M116 -44.5q63.5 57.5 160 57.5q107 0 177 -66.5q70 -67 70 -163q0 -71 -36 -118q-36 -47.5 -101 -62.5q50 -23 75.5 -62q25.5 -39 25.5 -86.5q0 -50 -26.5 -94.5q-27 -44.5 -77.5 -70q-50.5 -26 -110.5 -26q-87 0 -145.5 50q-58.5 49.5 -75 140l90 16q10 -66 45 -99q35 -33 87.5 -33q53 0 86.5 32.5q33.5 32.5 33.5 82q0 62.5 -46 92.5q-46 30 -103.5 30l-14.5 -1l-10 79q38 -10 63.5 -10q62.5 0 103 40.5q40.5 40 40.5 102q0 65 -43.5 109q-44 44 -107.5 44q-53.5 0 -90.5 -33.5q-37.5 -34 -53 -110.5l-90 12q9 91.5 73 149" />
</g>
<g id="PathID_164" transform="matrix(0.0352941, 0, 0, 0.0352941, 432, 84)">
<path style="fill:#FFFFFF;fill-opacity:1" d="M421 0l0 -175.5l99 0l0 -82.5l-99 0l0 -475l-73.5 0l-334.5 475l0 82.5l318 0l0 175.5l90 0M101.5 -258q115 -165 229.5 -330.5l0 330.5l-229.5 0" />
</g>
<g id="PathID_165" transform="matrix(0.0352941, 0, 0, 0.0352941, 480, 84)">
<path style="fill:#FFFFFF;fill-opacity:1" d="M115 -43.5q63 56 163 56q122 0 192.5 -89q58 -72.5 58 -172q0 -104.5 -66 -171q-66 -66.5 -162 -66.5q-72.5 0 -138.5 46q20 -98.5 39.5 -197l292.5 0l0 -86l-364.5 0l-71 376.5l84.5 11q20 -31.5 55 -51q35 -20 78.5 -20q70 0 113.5 44.5q43 44.5 43 121.5q0 81 -45 130q-45 49 -110 49q-54 0 -92 -34.5q-38.5 -35 -49 -104l-94.5 8q9 92.5 72.5 148.5" />
</g>
<g id="PathID_166" transform="matrix(0.0352941, 0, 0, 0.0352941, 0, 132)">
<path style="fill:#FFFFFF;fill-opacity:1" d="M443.5 -687.5q-55.5 -48.5 -142 -48.5q-116 0 -184.5 84q-78.5 96.5 -78.5 309q0 190 71 273q71 82.5 183.5 82.5q66 0 118 -31.5q52 -31.5 82 -90.5q29.5 -59.5 29.5 -128.5q0 -105 -63 -171q-63.5 -66.5 -153.5 -66.5q-51.5 0 -98.5 24q-47 24 -79.5 73.5q1 -110 25.5 -169.5q24.5 -59.5 67 -90.5q32.5 -24 75.5 -24q53.5 0 90 38.5q22 24 34 77l89.5 -7q-11 -85.5 -66 -134M184.5 -352q42.5 -44 103.5 -44q61.5 0 102 44q40.5 43.5 40.5 119.5q0 79 -41 125q-41 46 -98 46q-39 0 -74.5 -22q-35.5 -22.5 -55 -65q-20 -42.5 -20 -89q0 -71 42.5 -114.5" />
</g>
<g id="PathID_167" transform="matrix(0.0352941, 0, 0, 0.0352941, 48, 132)">
<path style="fill:#FFFFFF;fill-opacity:1" d="M407.5 -637q-68.5 78 -129 192q-61 113.5 -93.5 236q-32.5 122.5 -34 209l92.5 0q7.5 -109.5 34.5 -201.5q37.5 -130.5 106.5 -254q68.5 -123.5 138.5 -198l0 -70l-474.5 0l0 86.5l359 0" />
</g>
<g id="PathID_168" transform="matrix(0.0352941, 0, 0, 0.0352941, 96, 132)">
<path style="fill:#FFFFFF;fill-opacity:1" d="M78 -331.5q-36.5 48 -36.5 119.5q0 96 66.5 160.5q66.5 64 175 64q108.5 0 175 -64q66.5 -64 66.5 -158q0 -68 -35 -117q-35.5 -49 -103 -71q54.5 -20.5 81.5 -58q26.5 -38 26.5 -89q0 -80 -58.5 -135.5q-58.5 -56 -154.5 -56q-95.5 0 -153 54.5q-57.5 54.5 -57.5 134.5q0 53 27 91q27 38 83 58.5q-67 17.5 -103 66M197 -629q34 -33 85.5 -33q51 0 85.5 34q34 33.5 34 83q0 47.5 -33 80.5q-33.5 32.5 -85.5 32.5q-53.5 0 -87 -33q-33.5 -33 -33.5 -85q0 -46 34 -79M176 -316.5q41.5 -42 105 -42q65 0 108.5 42.5q43 42.5 43 107.5q0 64 -42 105.5q-42 41.5 -106.5 41.5q-41.5 0 -77.5 -19.5q-36 -20 -54 -56q-18.5 -36 -18.5 -74.5q0 -63 42 -105" />
</g>
<g id="PathID_169" transform="matrix(0.0352941, 0, 0, 0.0352941, 144, 132)">
<path style="fill:#FFFFFF;fill-opacity:1" d="M121.5 -35q54.5 47.5 140.5 47.5q81 0 141.5 -43.5q60 -43.5 90.5 -126.5q30.5 -83.5 30.5 -224q0 -135 -30.5 -206q-31 -71.5 -90 -110q-59.5 -38.5 -131 -38.5q-99 0 -164.5 68q-66 68 -66 179.5q0 108 63 174q63 66 154 66q54.5 0 101.5 -26.5q46.5 -27 73.5 -70q0.5 9 0.5 18q0 56 -13.5 110q-13.5 54 -33.5 86q-20 31.5 -51 50.5q-31.5 19 -73 19q-48.5 0 -79.5 -27.5q-31 -27.5 -42 -88.5l-86.5 8q11 86.5 65.5 134.5M384.5 -371.5q-40.5 43.5 -103 43.5q-62 0 -104 -43.5q-42.5 -44 -42.5 -114q0 -78 44.5 -127q44.5 -49 104.5 -49q58 0 99.5 45.5q41 45.5 41 123q0 77.5 -40 121.5" />
</g>
<g id="PathID_170" transform="matrix(0.0352941, 0, 0, 0.0352941, 192, 132)">
<path style="fill:#FFFFFF;fill-opacity:1" d="M195 -428.5l0 -102.5l-102.5 0l0 102.5l102.5 0M195 0l0 -102.5l-102.5 0l0 102.5l102.5 0" />
</g>
<g id="PathID_171" transform="matrix(0.0352941, 0, 0, 0.0352941, 240, 132)">
<path style="fill:#FFFFFF;fill-opacity:1" d="M193.5 -428.5l0 -102.5l-102.5 0l0 102.5l102.5 0M142 0q-1.5 45.5 -15 70q-13.5 24 -42 36.5l25 38.5q43.5 -19 63.5 -53.5q20 -35 20 -91.5l0 -102.5l-102.5 0l0 102.5l51 0" />
</g>
<g id="PathID_172" transform="matrix(0.0352941, 0, 0, 0.0352941, 288, 132)">
<path style="fill:#FFFFFF;fill-opacity:1" d="M541.5 -113l0 -89.5q-192.5 -79.5 -385 -159.5l385 -158l0 -89.5l-485.5 205l0 84q243 104 485.5 207.5" />
</g>
<g id="PathID_173" transform="matrix(0.0352941, 0, 0, 0.0352941, 336, 132)">
<path style="fill:#FFFFFF;fill-opacity:1" d="M541 -515l-484 0l0 84l484 0l0 -84M541 -292.5l-484 0l0 84l484 0l0 -84" />
</g>
<g id="PathID_174" transform="matrix(0.0352941, 0, 0, 0.0352941, 384, 132)">
<path style="fill:#FFFFFF;fill-opacity:1" d="M541.5 -404.5l-485.5 -205l0 89.5q192.5 79 384.5 158q-192 80 -384.5 159.5l0 89.5q243 -103.5 485.5 -207.5l0 -84" />
</g>
<g id="PathID_175" transform="matrix(0.0352941, 0, 0, 0.0352941, 432, 132)">
<path style="fill:#FFFFFF;fill-opacity:1" d="M322.5 -180.5q1 -54 7.5 -78q6.5 -24 20 -42.5q13.5 -18.5 57.5 -57.5q65.5 -58 88 -98.5q22.5 -40.5 22.5 -88.5q0 -83 -64 -141.5q-64 -58.5 -171.5 -58.5q-101.5 0 -163 54.5q-62 54.5 -74.5 157l92.5 11q12 -76.5 50.5 -112.5q38.5 -36 96 -36q59.5 0 100.5 40q41 39.5 41 92q0 29 -14 53.5q-14 24.5 -60.5 66l-65 62.5q-24.5 29.5 -35.5 58.5q-15 38.5 -15 91.5q0.5 13.5 0.5 27l86.5 0M333 0l0 -102.5l-102.5 0l0 102.5l102.5 0" />
</g>
<g id="PathID_176" transform="matrix(0.0352941, 0, 0, 0.0352941, 480, 132)">
<path style="fill:#FFFFFF;fill-opacity:1" d="M590 -38.5q10 19.5 31.5 30q21 10.5 55.5 10.5q108 0 199 -101q102 -112.5 102 -257.5q0 -101.5 -48.5 -188q-57 -100.5 -155.5 -151q-99 -51 -223 -51q-160 0 -272 72q-112.5 72 -173.5 207.5q-50 110.5 -50 232.5q0 109.5 42 204q33.5 74.5 99.5 132q66 57 160 85.5q93.5 28.5 204.5 28.5q120.5 0 206 -31.5q85.5 -32 147.5 -86.5q62 -54.5 87.5 -107l-90.5 0q-44 63 -132.5 107q-88.5 44 -219.5 44q-122.5 0 -223 -42q-101 -42.5 -154 -131q-53.5 -88.5 -53.5 -211q0 -117 53.5 -219q53 -102.5 150 -157q96.5 -55 213.5 -55q102.5 0 187.5 43.5q84.5 43.5 127.5 116q42.5 72.5 42.5 156q0 71.5 -33 139q-33.5 67 -90.5 107q-43 30.5 -69.5 30.5q-14.5 0 -24.5 -9.5q-10.5 -10 -10.5 -23.5l15 -77.5l72 -335.5l-89.5 0l-17 77.5q-28.5 -46.5 -68 -69q-39.5 -23 -83 -23q-57 0 -117.5 40q-60.5 40 -101 120q-41 79.5 -41 159q0 64.5 26.5 118.5q26 54 68 80q42 26 86.5 26q40.5 0 81 -22.5q40 -23 72.5 -60.5q3 30.5 9.5 43M354.5 -311.5q16 -51.5 42.5 -87.5q26.5 -36 55 -52q28 -16.5 60 -16.5q48.5 0 82.5 37.5q33.5 37.5 33.5 105.5q0 51 -18 102q-18 50.5 -46 83.5q-28.5 33 -59.5 50q-31 16.5 -59 16.5q-42 0 -74.5 -38q-32.5 -38 -32.5 -106.5q0 -43 16 -94.5" />
</g>
<g id="PathID_177" transform="matrix(0.0352941, 0, 0, 0.0352941, 0, 180)">
<path style="fill:#FFFFFF;fill-opacity:1" d="M101.5 0q40.5 -111 80.5 -222l306.5 0q43 111 85.5 222l110.5 0l-300 -733l-104.5 0q-140.5 366.5 -281.5 733l103 0M290.5 -516q25.5 -69.5 39.5 -140q17 59.5 52 152q38.5 101.5 76.5 203l-248.5 0q40.5 -107.5 80.5 -215" />
</g>
<g id="PathID_178" transform="matrix(0.0352941, 0, 0, 0.0352941, 48, 180)">
<path style="fill:#FFFFFF;fill-opacity:1" d="M354.5 0q70 0 118.5 -12q48 -12.5 80 -36.5q32 -24 54 -68q21.5 -44.5 21.5 -96q0 -64 -35.5 -111q-36 -47 -102.5 -66.5q51.5 -25.5 77 -67q25.5 -41.5 25.5 -88.5q0 -50.5 -28.5 -96.5q-29 -46.5 -79.5 -68.5q-51 -22.5 -135 -22.5l-275 0l0 733l279.5 0M172 -646.5l146.5 0q79 0 111.5 10.5q32.5 10 50 38q17.5 27.5 17.5 64q0 38.5 -18.5 64q-19 25.5 -56 36.5q-28 8.5 -92.5 8.5l-158.5 0l0 -221.5M172 -338.5l169.5 0q70 0 107.5 12.5q37 12 58 42.5q21 30 21 71q0 35 -14.5 62q-14.5 26.5 -37 40.5q-22.5 14 -56 20l-66 3.5l-182.5 0l0 -252" />
</g>
<g id="PathID_179" transform="matrix(0.0352941, 0, 0, 0.0352941, 96, 180)">
<path style="fill:#FFFFFF;fill-opacity:1" d="M525.5 -117.5q-56.5 47 -138 47q-67 0 -124.5 -34.5q-57.5 -34.5 -84.5 -104q-27.5 -70 -27.5 -163.5q0 -72.5 23 -140.5q23 -68.5 80 -109q56.5 -40.5 141 -40.5q73.5 0 122 36.5q48.5 36.5 74 116.5q48 -11 95.5 -22.5q-29.5 -101.5 -104.5 -157.5q-75 -56 -185 -56q-97 0 -177.5 44.5q-81 44 -124.5 129.5q-44 85 -44 199.5q0 105 39 196.5q38.5 91.5 113 140q74 48 192.5 48q114.5 0 194 -62.5q79 -63 109.5 -182.5q-48.5 -12 -97 -24.5q-20 92.5 -76.5 139.5" />
</g>
<g id="PathID_180" transform="matrix(0.0352941, 0, 0, 0.0352941, 144, 180)">
<path style="fill:#FFFFFF;fill-opacity:1" d="M343.5 0q66.5 0 118 -12.5q51 -12.5 87.5 -36.5q36 -24.5 66.5 -66.5q30.5 -42.5 50 -107q19.5 -64.5 19.5 -148q0 -98 -28.5 -174q-29 -76.5 -87 -125.5q-44.5 -38 -107.5 -52.5q-45 -10.5 -130.5 -10.5l-252.5 0l0 733l264.5 0M176 -646.5l154 0q86.5 0 125.5 15q54 21 92 83q37.5 61.5 37.5 176.5q0 83 -19 141.5q-19.5 58 -54 92.5q-24.5 24.5 -65.5 38q-41.5 13.5 -114 13.5l-156.5 0l0 -560" />
</g>
<g id="PathID_181" transform="matrix(0.0352941, 0, 0, 0.0352941, 192, 180)">
<path style="fill:#FFFFFF;fill-opacity:1" d="M628 0l0 -86.5l-450 0l0 -249.5l405.5 0l0 -86l-405.5 0l0 -224.5l433 0l0 -86.5l-530 0l0 733l547 0" />
</g>
<g id="PathID_182" transform="matrix(0.0352941, 0, 0, 0.0352941, 240, 180)">
<path style="fill:#FFFFFF;fill-opacity:1" d="M181 0l0 -333l344 0l0 -86.5l-344 0l0 -227l397.5 0l0 -86.5l-494.5 0l0 733l97 0" />
</g>
<g id="PathID_183" transform="matrix(0.0352941, 0, 0, 0.0352941, 288, 180)">
<path style="fill:#FFFFFF;fill-opacity:1" d="M637.5 -287.5l0 136.5q-31 27.5 -91 52q-60 24 -123 24q-72.5 0 -137 -32q-64.5 -32 -98 -98q-34 -66 -34 -164q0 -79.5 28 -147.5q16.5 -39.5 46.5 -72.5q29.5 -33 78 -53q48.5 -20.5 115 -20.5q55.5 0 101 19.5q45.5 19 70 51q24.5 32 41 88l87.5 -24q-19 -74 -55.5 -120q-36.5 -46 -100.5 -71.5q-64.5 -26 -144 -26q-109.5 0 -193.5 45q-84 45 -128.5 138q-45 92.5 -45 199.5q0 108 45 195.5q45 87.5 133.5 134q88 46 196 46q80 0 156 -28.5q76 -29 147.5 -86l0 -272q-155 0.5 -310.5 0.5l0 86l215.5 0" />
</g>
<g id="PathID_184" transform="matrix(0.0352941, 0, 0, 0.0352941, 336, 180)">
<path style="fill:#FFFFFF;fill-opacity:1" d="M179 0l0 -345.5l381 0l0 345.5l97 0l0 -733l-97 0l0 301l-381 0l0 -301l-97 0l0 733l97 0" />
</g>
<g id="PathID_185" transform="matrix(0.0352941, 0, 0, 0.0352941, 384, 180)">
<path style="fill:#FFFFFF;fill-opacity:1" d="M192.5 0l0 -733l-97 0l0 733l97 0" />
</g>
<g id="PathID_186" transform="matrix(0.0352941, 0, 0, 0.0352941, 432, 180)">
<path style="fill:#FFFFFF;fill-opacity:1" d="M79 -43q51 55.5 147.5 55.5q65 0 113.5 -26.5q48 -26.5 70.5 -77q22 -50.5 22 -142.5l0 -499.5l-97 0l0 505q0 63 -10 92q-10 28.5 -36.5 45.5q-26.5 16.5 -63 16.5q-49.5 0 -77.5 -31q-28 -31 -31.5 -115l-87.5 12q-2 109.5 49.5 165" />
</g>
<g id="PathID_187" transform="matrix(0.0352941, 0, 0, 0.0352941, 480, 180)">
<path style="fill:#FFFFFF;fill-opacity:1" d="M172 0l0 -254l120 -117l261 371l128 0l-321 -436l307.5 -297l-131.5 0l-364 363.5l0 -363.5l-97 0l0 733l97 0" />
</g>
<g id="PathID_188" transform="matrix(0.0352941, 0, 0, 0.0352941, 0, 228)">
<path style="fill:#FFFFFF;fill-opacity:1" d="M533 0l0 -86.5l-361 0l0 -646.5l-97 0l0 733l458 0" />
</g>
<g id="PathID_189" transform="matrix(0.0352941, 0, 0, 0.0352941, 48, 228)">
<path style="fill:#FFFFFF;fill-opacity:1" d="M169.5 0l0 -624l212 624l87.5 0l213 -613.5l0 613.5l93.5 0l0 -733l-130.5 0q-87.5 255 -175.5 510l-39 117.5l-35 -108.5q-86.5 -259.5 -173.5 -519l-146 0l0 733l93.5 0" />
</g>
<g id="PathID_190" transform="matrix(0.0352941, 0, 0, 0.0352941, 96, 228)">
<path style="fill:#FFFFFF;fill-opacity:1" d="M171 0l0 -576l385 576l99.5 0l0 -733l-93 0l0 575.5q-192.5 -287.5 -385 -575.5l-99.5 0l0 733l93 0" />
</g>
<g id="PathID_191" transform="matrix(0.0352941, 0, 0, 0.0352941, 144, 228)">
<path style="fill:#FFFFFF;fill-opacity:1" d="M91.5 -174q42 86.5 123.5 136.5q81.5 50 185 50q95.5 0 178 -45q82.5 -45.5 127.5 -133.5q45 -88 45 -199.5q0 -110 -42.5 -196.5q-43 -87 -124.5 -135.5q-81.5 -48.5 -183 -48.5q-155 0 -253 103.5q-98 103 -98 285.5q0 96.5 42 183M224 -591.5q74 -71 177 -71q72.5 0 131 37q58 36.5 88.5 103.5q30 66.5 30 156q0 141.5 -70.5 218.5q-71 77 -180.5 77q-107.5 0 -178.5 -76q-71.5 -76.5 -71.5 -209q0 -165.5 74.5 -236" />
</g>
<g id="PathID_192" transform="matrix(0.0352941, 0, 0, 0.0352941, 192, 228)">
<path style="fill:#FFFFFF;fill-opacity:1" d="M176 0l0 -298l188 0q155.5 0 215 -64.5q59.5 -65 59.5 -158.5q0 -54.5 -22 -100q-22.5 -45.5 -59 -70.5q-36.5 -25.5 -90.5 -34.5q-38.5 -7 -111.5 -7l-276.5 0l0 733l97 0M176 -646.5l187.5 0q66 0 90.5 6.5q38 10.5 61.5 43.5q23 32.5 23 78.5q0 63.5 -39.5 98.5q-39.5 35 -133.5 35l-189.5 0l0 -262" />
</g>
<g id="PathID_193" transform="matrix(0.0352941, 0, 0, 0.0352941, 240, 228)">
<path style="fill:#FFFFFF;fill-opacity:1" d="M717.5 -204q27.5 -72.5 27.5 -163q0 -109 -42.5 -195.5q-43 -87 -124.5 -135q-81.5 -48.5 -183 -48.5q-100.5 0 -181.5 46.5q-81.5 46.5 -125.5 135.5q-44 89 -44 197.5q0 109 44 196q43.5 87 124.5 135q81 48 180.5 48q98.5 0 180 -45.5q78.5 61.5 157.5 90q14.5 -33.5 28.5 -67.5q-57 -21.5 -124.5 -68q55.5 -53.5 83 -125.5M397.5 -132q50.5 12.5 96 42q-46 19.5 -98 19.5q-110 0 -180.5 -76.5q-71 -76.5 -71 -219.5q0 -147.5 71.5 -221.5q71.5 -74.5 180 -74.5q72.5 0 131 37q58 36.5 88.5 103q30 66.5 30 155.5q0 156.5 -85.5 234.5q-54.5 -46.5 -138.5 -70q-11.5 35.5 -23.5 70.5" />
</g>
<g id="PathID_194" transform="matrix(0.0352941, 0, 0, 0.0352941, 288, 228)">
<path style="fill:#FFFFFF;fill-opacity:1" d="M177.5 0l0 -325.5l112.5 0l54 3.5q22.5 5.5 44.5 19.5q21.5 14 49 49l70 101l97 152.5l122 0l-127.5 -199.5q-38 -58.5 -80.5 -97.5q-20 -18 -58.5 -36.5q105.5 -14.5 156 -68q50.5 -53.5 50.5 -131.5q0 -60.5 -30.5 -110.5q-30.5 -50 -81.5 -69.5q-51 -20 -149 -20l-325 0l0 733l97 0M177.5 -652l232 0q81.5 0 119.5 33.5q37.5 33.5 37.5 85.5q0 35.5 -19.5 66q-19.5 30 -57 44q-37.5 13.5 -104 13.5l-208.5 0l0 -242.5" />
</g>
<g id="PathID_195" transform="matrix(0.0352941, 0, 0, 0.0352941, 336, 228)">
<path style="fill:#FFFFFF;fill-opacity:1" d="M86.5 -103.5q38 58 105.5 87q67 29 166.5 29q78.5 0 141.5 -28.5q62.5 -29 96 -80.5q33.5 -52 33.5 -110.5q0 -59 -30.5 -104q-30.5 -45.5 -94.5 -75q-44 -20 -162 -46.5q-118.5 -27 -146.5 -52.5q-28.5 -25.5 -28.5 -65q0 -45.5 40.5 -77.5q40 -32.5 128 -32.5q84.5 0 128 35.5q43 35.5 50.5 105l93 -7q-2.5 -64.5 -36 -115.5q-33.5 -51 -95.5 -77q-62.5 -26.5 -144 -26.5q-74 0 -134.5 25q-60.5 25 -92 73.5q-31.5 48 -31.5 103.5q0 50.5 26 91.5q25.5 40.5 78 68q40.5 21.5 141.5 46q101 24 130.5 35.5q46 17.5 66 43.5q20 25.5 20 60q0 34 -20.5 63q-21 28.5 -63.5 45q-42.5 16.5 -98 16.5q-62.5 0 -112.5 -21.5q-50 -22 -73.5 -57q-24 -35.5 -30.5 -90.5l-91.5 8q2 73.5 40.5 132" />
</g>
<g id="PathID_196" transform="matrix(0.0352941, 0, 0, 0.0352941, 384, 228)">
<path style="fill:#FFFFFF;fill-opacity:1" d="M362.5 0l0 -646.5l242.5 0l0 -86.5l-581 0l0 86.5l241.5 0l0 646.5l97 0" />
</g>
<g id="PathID_197" transform="matrix(0.0352941, 0, 0, 0.0352941, 432, 228)">
<path style="fill:#FFFFFF;fill-opacity:1" d="M560 -310q0 138 -45.5 186.5q-45.5 48.5 -152.5 48.5q-62.5 0 -105.5 -24.5q-43.5 -24.5 -61 -69.5q-18 -45.5 -18 -141l0 -423l-97 0l0 423.5q0 116.5 28 184q28 67 93.5 102.5q65.5 35.5 168.5 35.5q106 0 171.5 -40.5q65 -41 90 -106q25 -65 25 -175.5l0 -423.5l-97 0l0 423" />
</g>
<g id="PathID_198" transform="matrix(0.0352941, 0, 0, 0.0352941, 480, 228)">
<path style="fill:#FFFFFF;fill-opacity:1" d="M388 0l287 -733l-99 0l-198 532.5q-19.5 60 -39.5 120q-19 -60 -38.5 -120l-190.5 -532.5l-105 0l284 733l99.5 0" />
</g>
<g id="PathID_199" transform="matrix(0.0352941, 0, 0, 0.0352941, 0, 276)">
<path style="fill:#FFFFFF;fill-opacity:1" d="M306 0q78 -279 155.5 -558.5q11 -43 21.5 -86l23 86l154.5 558.5l93.5 0l201 -733l-97.5 0l-115 471q-18 80 -36.5 159.5q-17.5 -121.5 -57 -259.5l-105 -371l-117 0q-69.5 247.5 -139.5 495l-33 135.5l-31 -150l-111.5 -480.5l-99.5 0q97.5 366.5 194.5 733l99 0" />
</g>
<g id="PathID_200" transform="matrix(0.0352941, 0, 0, 0.0352941, 48, 276)">
<path style="fill:#FFFFFF;fill-opacity:1" d="M121 0q92 -127.5 184 -255.5l35 -55l32 49l184.5 261.5l120 0l-277.5 -387.5q129 -172.5 257.5 -345.5l-105.5 0q-73.5 97.5 -147.5 194.5l-58 83.5l-59 -90l-133 -188l-115.5 0l250 351q-141.5 191 -283.5 382l116.5 0" />
</g>
<g id="PathID_201" transform="matrix(0.0352941, 0, 0, 0.0352941, 96, 276)">
<path style="fill:#FFFFFF;fill-opacity:1" d="M382.5 0l0 -310.5q146.5 -211 292.5 -422.5l-113 0l-142 215.5q-40 65 -80 129.5q-37 -62 -74.5 -124q-72 -110.5 -144.5 -221l-118 0l282.5 422.5l0 310.5l97 0" />
</g>
<g id="PathID_202" transform="matrix(0.0352941, 0, 0, 0.0352941, 144, 276)">
<path style="fill:#FFFFFF;fill-opacity:1" d="M600 0l0 -86.5l-468 0q22.5 -25.5 44.5 -51.5q206 -254 411.5 -508.5l0 -86.5l-525 0l0 86.5l409 0l-76 87q-187.5 235 -375.5 469.5l0 90l579.5 0" />
</g>
<g id="PathID_203" transform="matrix(0.0352941, 0, 0, 0.0352941, 192, 276)">
<path style="fill:#FFFFFF;fill-opacity:1" d="M268 203.5l0 -74.5l-108.5 0l0 -787.5l108.5 0l0 -74.5l-198.5 0l0 936.5l198.5 0" />
</g>
<g id="PathID_204" transform="matrix(0.0352941, 0, 0, 0.0352941, 240, 276)">
<path style="fill:#FFFFFF;fill-opacity:1" d="M284.5 12.5l-212 -758l-72.5 0q106.5 379 212.5 758l72 0" />
</g>
<g id="PathID_205" transform="matrix(0.0352941, 0, 0, 0.0352941, 288, 276)">
<path style="fill:#FFFFFF;fill-opacity:1" d="M218 -733l-198.5 0l0 74.5l108.5 0l0 787.5l-108.5 0l0 74.5l198.5 0l0 -936.5" />
</g>
<g id="PathID_206" transform="matrix(0.0352941, 0, 0, 0.0352941, 336, 276)">
<path style="fill:#FFFFFF;fill-opacity:1" d="M239.5 -643.5l123.5 298.5l90.5 0l-177.5 -400.5l-72.5 0q-88 200.5 -176.5 400.5l92.5 0l120 -298.5" />
</g>
<g id="PathID_207" transform="matrix(0.0352941, 0, 0, 0.0352941, 384, 276)">
<path style="fill:#FFFFFF;fill-opacity:1" d="M581 203.5l0 -65l-596.5 0l0 65l596.5 0" />
</g>
<g id="PathID_208" transform="matrix(0.0352941, 0, 0, 0.0352941, 432, 276)">
<path style="fill:#FFFFFF;fill-opacity:1" d="M165 -737l-120.5 0l115.5 140l72.5 0q-33.5 -70 -67.5 -140" />
</g>
<g id="PathID_209" transform="matrix(0.0352941, 0, 0, 0.0352941, 480, 276)">
<path style="fill:#FFFFFF;fill-opacity:1" d="M432 0l94 0q-17 -30.5 -22.5 -63.5q-6 -33.5 -6 -159l0 -120q0 -60 -4.5 -83q-8 -37 -28 -61q-20 -24.5 -62.5 -40.5q-42.5 -16 -110.5 -16q-68.5 0 -120.5 19q-52 18.5 -79.5 53.5q-27.5 34.5 -39.5 91l88 12q14.5 -56.5 45 -78.5q30 -22.5 93.5 -22.5q68 0 102.5 30.5q25.5 22.5 25.5 77.5q0 12 -0.5 23.5q-51.5 18 -160.5 31l-80 13.5q-36 10 -64.5 29.5q-29 19.5 -46.5 52q-18 32 -18 71q0 66.5 47 109.5q47 42.5 134.5 42.5q53 0 99.5 -17.5q46 -17.5 96 -60q4 37.5 18 65.5M406.5 -233.5q0 59.5 -14.5 90q-19 39.5 -59.5 62.5q-40.5 22.5 -92.5 22.5q-52.5 0 -79.5 -24q-27.5 -24 -27.5 -60q0 -23.5 12.5 -42.5q12.5 -19.5 35.5 -29.5q23 -10 78.5 -18q98 -14 147 -34l0 33" />
</g>
<g id="PathID_210" transform="matrix(0.0352941, 0, 0, 0.0352941, 0, 324)">
<path style="fill:#FFFFFF;fill-opacity:1" d="M150.5 -66.5q53.5 78.5 147.5 78.5q94.5 0 162 -74.5q67.5 -74.5 67.5 -211q0 -57.5 -16 -108q-16 -50.5 -44 -86q-28.5 -36 -72 -55.5q-44 -20 -93 -20q-88.5 0 -145.5 71.5l0 -261.5l-90 0l0 733l83.5 0l0 -66.5M192.5 -417.5q43 -51.5 102 -51.5q58.5 0 100 49.5q41 49.5 41 153.5q0 101.5 -43 153q-43 51 -102 51q-72.5 0 -115 -69.5q-26 -42.5 -26 -138q0 -97 43 -148" />
</g>
<g id="PathID_211" transform="matrix(0.0352941, 0, 0, 0.0352941, 48, 324)">
<path style="fill:#FFFFFF;fill-opacity:1" d="M369 -94.5q-35.5 32.5 -88.5 32.5q-66 0 -107 -48.5q-41 -48.5 -41 -155.5q0 -105.5 42.5 -154q42.5 -49 110.5 -49q45 0 77 27q31.5 27 44 80.5l87.5 -13.5q-15.5 -80.5 -70.5 -124q-55 -44 -141.5 -44q-68.5 0 -126.5 32.5q-58.5 32 -87 96.5q-28.5 64.5 -28.5 150.5q0 133 66.5 204.5q66 71 175 71q87 0 147 -51.5q59.5 -52 74 -143.5l-88.5 -11.5q-9.5 67.5 -45 100" />
</g>
<g id="PathID_212" transform="matrix(0.0352941, 0, 0, 0.0352941, 96, 324)">
<path style="fill:#FFFFFF;fill-opacity:1" d="M495.5 0l0 -733l-89.5 0l0 263q-23.5 -32.5 -61 -52.5q-37.5 -20.5 -85.5 -20.5q-65.5 0 -118.5 34.5q-53 34.5 -79.5 99.5q-26.5 64.5 -26.5 144q0 81.5 29.5 144.5q29 62.5 82.5 97.5q53 35 116.5 35q98 0 148.5 -79l0 67l83.5 0M168 -419.5q40 -49 100 -49q61.5 0 103.5 51q42 51 42 160q0 99 -41 147.5q-41.5 48 -100.5 48q-58.5 0 -101.5 -50.5q-43 -50.5 -43 -152.5q0 -105.5 40.5 -154.5" />
</g>
<g id="PathID_213" transform="matrix(0.0352941, 0, 0, 0.0352941, 144, 324)">
<path style="fill:#FFFFFF;fill-opacity:1" d="M375.5 -88q-35 26 -84.5 26q-66.5 0 -111 -46.5q-44.5 -46.5 -49.5 -134l396 0q0.5 -12 0.5 -24q0 -131.5 -67.5 -204q-67.5 -72.5 -174 -72.5q-110 0 -179 74q-69 74 -69 208q0 129.5 68.5 201.5q68 71.5 184.5 71.5q92.5 0 152 -45q59.5 -45 81.5 -126.5l-93 -11.5q-20.5 57 -55.5 83M182.5 -427.5q42 -41.5 104 -41.5q68.5 0 111.5 52q28 33.5 34 100.5l-296.5 0q4.5 -69.5 47 -111" />
</g>
<g id="PathID_214" transform="matrix(0.0352941, 0, 0, 0.0352941, 192, 324)">
<path style="fill:#FFFFFF;fill-opacity:1" d="M178.5 0l0 -461l103.5 0l0 -70l-103.5 0l0 -49q0 -48 17 -65.5q17 -17.5 58 -17.5l53 5q7 -39 13.5 -78.5q-46 -9 -84 -9q-59 0 -91.5 22q-33 21.5 -46 56.5q-9.5 26 -9.5 79.5l0 56.5l-79.5 0l0 70l79.5 0l0 461l89.5 0" />
</g>
<g id="PathID_215" transform="matrix(0.0352941, 0, 0, 0.0352941, 240, 324)">
<path style="fill:#FFFFFF;fill-opacity:1" d="M107.5 173q58.5 42.5 153.5 42.5q80 0 135 -30q54.5 -30 80 -81.5q25 -52 25 -176l0 -459l-83 0l0 64q-61 -76 -155 -76q-70.5 0 -122.5 35q-52.5 35 -80 99.5q-27.5 64 -27.5 140q0 110.5 60 189.5q60 79 169.5 79q88 0 147 -69.5q0.5 88 -6.5 115.5q-12 45 -46 70q-34 25 -96.5 25q-58 0 -91.5 -25q-25 -18.5 -30.5 -59l-87.5 -13q-2 86 56.5 129M167.5 -419.5q42 -49 102 -49q61 0 104.5 49.5q43 49.5 43 147q0 102 -42 150q-42 47.5 -104 47.5q-62.5 0 -104 -48q-41.5 -48 -41.5 -152.5q0 -96 42 -144.5" />
</g>
<g id="PathID_216" transform="matrix(0.0352941, 0, 0, 0.0352941, 288, 324)">
<path style="fill:#FFFFFF;fill-opacity:1" d="M157.5 0l0 -290.5q0 -62.5 15 -98q15 -35.5 50.5 -56q35 -21 75 -21q53.5 0 83 31q29 30.5 29 98l0 336.5l90 0l0 -336.5q0 -78 -18.5 -119q-19 -41 -62.5 -64q-43.5 -23.5 -102.5 -23.5q-96 0 -159 73l0 -263l-90 0l0 733l90 0" />
</g>
<g id="PathID_217" transform="matrix(0.0352941, 0, 0, 0.0352941, 336, 324)">
<path style="fill:#FFFFFF;fill-opacity:1" d="M158 -629.5l0 -103.5l-90 0l0 103.5l90 0M158 0l0 -531l-90 0l0 531l90 0" />
</g>
<g id="PathID_218" transform="matrix(0.0352941, 0, 0, 0.0352941, 384, 324)">
<path style="fill:#FFFFFF;fill-opacity:1" d="M157 -628.5l0 -104.5l-90 0l0 104.5l90 0M23.5 215.5q75.5 0 108 -50q25.5 -38.5 25.5 -136.5l0 -560l-90 0l0 558q0 73 -13.5 91.5q-13.5 18 -41 18l-42.5 -7l-17 76.5q34 9.5 70.5 9.5" />
</g>
<g id="PathID_219" transform="matrix(0.0352941, 0, 0, 0.0352941, 432, 324)">
<path style="fill:#FFFFFF;fill-opacity:1" d="M158 0l0 -210.5l63.5 -61l175.5 271.5l111 0q-111.5 -167 -223.5 -334l203 -197l-116.5 0l-213 216l0 -418l-90 0l0 733l90 0" />
</g>
<g id="PathID_220" transform="matrix(0.0352941, 0, 0, 0.0352941, 480, 324)">
<path style="fill:#FFFFFF;fill-opacity:1" d="M155.5 0l0 -733l-90 0l0 733l90 0" />
</g>
<g id="PathID_221" transform="matrix(0.0352941, 0, 0, 0.0352941, 0, 372)">
<path style="fill:#FFFFFF;fill-opacity:1" d="M157.5 0l0 -275.5q0 -72.5 14.5 -111q14.5 -38.5 47 -58.5q32 -20 70 -20q50 0 72 30q22 30 22 90l0 345l90 0l0 -308.5q0 -82 37 -119q37 -37.5 93 -37.5q31 0 54 14.5q23 14.5 32 38.5q8.5 23.5 8.5 77.5l0 334.5l89.5 0l0 -364.5q0 -91 -42.5 -134.5q-42.5 -44 -121.5 -44q-101 0 -164 93q-15.5 -44 -53 -68.5q-38 -24.5 -97 -24.5q-53 0 -94.5 24q-41.5 23.5 -66.5 62.5l0 -74.5l-80.5 0l0 531l90 0" />
</g>
<g id="PathID_222" transform="matrix(0.0352941, 0, 0, 0.0352941, 48, 372)">
<path style="fill:#FFFFFF;fill-opacity:1" d="M157.5 0l0 -290q0 -102 42 -138.5q41.5 -36.5 99 -36.5q36 0 63 16.5q26.5 16 37 43.5q10.5 27 10.5 82l0 323l90 0l0 -326.5q0 -62.5 -5 -87.5q-8 -38.5 -28 -66.5q-20 -28 -60 -45q-40.5 -17.5 -88.5 -17.5q-110.5 0 -169 87.5l0 -75.5l-81 0l0 531l90 0" />
</g>
<g id="PathID_223" transform="matrix(0.0352941, 0, 0, 0.0352941, 96, 372)">
<path style="fill:#FFFFFF;fill-opacity:1" d="M103 -59.5q68.5 71.5 180 71.5q69.5 0 128.5 -32.5q58.5 -32.5 89.5 -91q30.5 -59 30.5 -161.5q0 -126.5 -69.5 -198q-69.5 -72 -179 -72q-98.5 0 -167 59q-82 71 -82 218.5q0 134.5 69 206M171 -418q44.5 -50.5 112 -50.5q66.5 0 111.5 51q44.5 50.5 44.5 149q0 104.5 -44.5 155.5q-44.5 51 -111.5 51q-67.5 0 -112 -50.5q-44.5 -51 -44.5 -153q0 -102 44.5 -152.5" />
</g>
<g id="PathID_224" transform="matrix(0.0352941, 0, 0, 0.0352941, 144, 372)">
<path style="fill:#FFFFFF;fill-opacity:1" d="M157.5 203.5l0 -258.5q23 29 59 48q35.5 19 80.5 19q61.5 0 117.5 -34.5q55.5 -35 85 -100q29 -65.5 29 -147q0 -76 -26.5 -139.5q-26.5 -64 -78.5 -99q-52 -35 -120 -35q-52 0 -88.5 20.5q-36.5 20 -65.5 60.5l0 -69l-82 0l0 734.5l90 0M193.5 -418.5q44 -54 101.5 -54q58 0 100 50.5q41.5 50.5 41.5 152q0 106.5 -42.5 157.5q-43 50.5 -103 50.5q-59 0 -100.5 -49q-41.5 -49 -41.5 -151.5q0 -102.5 44.5 -156" />
</g>
<g id="PathID_225" transform="matrix(0.0352941, 0, 0, 0.0352941, 192, 372)">
<path style="fill:#FFFFFF;fill-opacity:1" d="M496 203.5l0 -734.5l-81 0l0 71q-56.5 -83 -155 -83q-63 0 -115.5 33q-53 32.5 -80.5 96q-28 63.5 -28 143.5q0 131.5 68.5 207q68 75.5 162.5 75.5q42.5 0 80.5 -19.5q37.5 -19.5 58.5 -49l0 260l90 0M169.5 -422q40.5 -50 99 -50q59 0 103 53.5q43.5 53.5 43.5 159.5q0 99.5 -41.5 148.5q-41.5 48.5 -99 48.5q-60 0 -103 -51q-43 -51.5 -43 -154q0 -105.5 41 -155" />
</g>
<g id="PathID_226" transform="matrix(0.0352941, 0, 0, 0.0352941, 240, 372)">
<path style="fill:#FFFFFF;fill-opacity:1" d="M156.5 0l0 -278q0 -57 15 -105q10 -31.5 33.5 -49q23.5 -18 53 -18q33 0 66 19.5l31 -83.5q-47 -29 -92.5 -29q-31.5 0 -57.5 18q-26.5 18 -57.5 74.5l0 -80.5l-81 0l0 531l90 0" />
</g>
<g id="PathID_227" transform="matrix(0.0352941, 0, 0, 0.0352941, 288, 372)">
<path style="fill:#FFFFFF;fill-opacity:1" d="M101 -31q54 43 157.5 43q62.5 0 112 -21.5q49.5 -22 76 -61.5q26 -40 26 -85q0 -46 -21.5 -77q-21.5 -31 -59 -47q-38 -16.5 -133.5 -42l-79.5 -23q-23.5 -9.5 -34.5 -24q-11 -14 -11 -31.5q0 -27.5 26.5 -48q26.5 -20.5 88.5 -20.5q52.5 0 81.5 23q28.5 23 34.5 64l88 -12q-8.5 -51.5 -31 -82q-22.5 -31 -69.5 -49q-47.5 -18 -110 -18q-41.5 0 -77.5 11q-36.5 10.5 -57.5 26q-28 20 -44 50.5q-16.5 30 -16.5 65.5q0 39 20 71.5q19.5 32 58 50.5q38 18 137 43q73.5 18.5 92 30.5q26.5 17.5 26.5 48q0 34 -30 59.5q-30 25 -92 25q-61.5 0 -95.5 -28.5q-34.5 -28.5 -42 -82l-89 14q15 84.5 69.5 127.5" />
</g>
<g id="PathID_228" transform="matrix(0.0352941, 0, 0, 0.0352941, 336, 372)">
<path style="fill:#FFFFFF;fill-opacity:1" d="M224.5 -77q-20 0 -30.5 -6.5q-11 -6.5 -15.5 -17.5q-5 -11 -5 -49.5l0 -310.5l90.5 0l0 -70l-90.5 0l0 -185.5l-89.5 54l0 131.5l-66 0l0 70l66 0l0 305.5q0 81 11 106.5q11 25 38 40.5q27 15.5 76 15.5q30 0 68 -8l-13 -79.5l-39.5 3.5" />
</g>
<g id="PathID_229" transform="matrix(0.0352941, 0, 0, 0.0352941, 384, 372)">
<path style="fill:#FFFFFF;fill-opacity:1" d="M496 0l0 -531l-90 0l0 284.5q0 68 -14.5 104q-15 35.5 -50.5 56.5q-35.5 20.5 -76 20.5q-40.5 0 -68 -20q-27.5 -20.5 -36 -56q-5.5 -24.5 -5.5 -95l0 -294.5l-90 0l0 329q0 57.5 5.5 84q8 39.5 28 67q19.5 27 60.5 45q40.5 18 87.5 18q106.5 0 168.5 -90l0 78l80.5 0" />
</g>
<g id="PathID_230" transform="matrix(0.0352941, 0, 0, 0.0352941, 432, 372)">
<path style="fill:#FFFFFF;fill-opacity:1" d="M299 0l201 -531l-92.5 0l-118 324q-16.5 50.5 -33.5 101l-34 -107l-114 -318l-95 0l202 531l84 0" />
</g>
<g id="PathID_231" transform="matrix(0.0352941, 0, 0, 0.0352941, 480, 372)">
<path style="fill:#FFFFFF;fill-opacity:1" d="M259.5 0q54 -204 107.5 -408.5l20.5 90.5q42.5 159 84.5 318l93.5 0l166 -531l-87.5 0l-91 307q-15 51.5 -30.5 102.5l-26.5 -101.5q-39.5 -154 -79.5 -308l-92.5 0q-42 155.5 -84.5 311q-13.5 55 -27.5 109.5q-15.5 -57 -31.5 -114l-84.5 -306.5l-93 0q81.5 265.5 162.5 531l94 0" />
</g>
<g id="PathID_232" transform="matrix(0.0352941, 0, 0, 0.0352941, 0, 420)">
<path style="fill:#FFFFFF;fill-opacity:1" d="M116.5 0q70 -104.5 139.5 -209.5q14.5 22.5 29 44.5l109 165l110.5 0l-197.5 -281l183.5 -250l-107.5 0q-44.5 63 -89.5 125.5q-20 29.5 -40.5 58.5l-37 -59.5l-81.5 -124.5l-112.5 0l179.5 255l-194 276l109 0" />
</g>
<g id="PathID_233" transform="matrix(0.0352941, 0, 0, 0.0352941, 48, 420)">
<path style="fill:#FFFFFF;fill-opacity:1" d="M121.5 215.5q43 0 74 -20.5q31 -21 55 -65.5q18 -33 50.5 -120.5l202 -540l-90 0q-56.5 155 -113.5 309.5q-21.5 59 -37 121q-17 -64.5 -38.5 -123l-110.5 -307.5l-97 0q101 266 201.5 532l-8 22q-13.5 33.5 -27.5 67q-11.5 18 -29.5 28q-18 10 -48 10q-22 0 -51.5 -8l10 84.5q32 11 58 11" />
</g>
<g id="PathID_234" transform="matrix(0.0352941, 0, 0, 0.0352941, 96, 420)">
<path style="fill:#FFFFFF;fill-opacity:1" d="M490 0l0 -77.5l-245.5 0l-113.5 4.5q28 -30.5 55.5 -61.5l287.5 -337l0 -59.5l-434 0l0 73l216.5 0l101.5 -3l-338 388l0 73l470 0" />
</g>
<g id="PathID_235" transform="matrix(0.0352941, 0, 0, 0.0352941, 144, 420)">
<path style="fill:#FFFFFF;fill-opacity:1" d="M28.5 -224.5q38.5 1 63 21q24 20 32 54.5q8 34.5 8.5 124.5q0.5 90 7 129.5q6 39.5 27 65.5q21 25.5 53 37q22 8 71 8l28 0l0 -78.5l-15.5 0q-47.5 0 -63.5 -13.5q-16.5 -13.5 -20.5 -47.5l-2 -116q0 -107.5 -24.5 -154.5q-25 -47.5 -80 -70.5q46.5 -22.5 68.5 -51.5q21.5 -29 30.5 -82.5q5.5 -34.5 5.5 -165.5q0 -65 17 -83.5q17 -19 69 -19l15.5 0l0 -78.5l-28 0q-43 0 -62 5q-28 8 -46 23.5q-18 15 -30 40.5q-12.5 25.5 -17 67.5l-3 110q-0.5 83.5 -8.5 118q-8 34.5 -32 54.5q-24.5 19.5 -63 20.5l0 81.5" />
</g>
<g id="PathID_236" transform="matrix(0.0352941, 0, 0, 0.0352941, 192, 420)">
<path style="fill:#FFFFFF;fill-opacity:1" d="M172.5 215.5l0 -961l-78.5 0l0 961l78.5 0" />
</g>
<g id="PathID_237" transform="matrix(0.0352941, 0, 0, 0.0352941, 240, 420)">
<path style="fill:#FFFFFF;fill-opacity:1" d="M250.5 -327q-24.5 -20 -32.5 -54q-8 -34.5 -8.5 -124.5q-0.5 -90 -6.5 -129.5q-6.5 -39.5 -27.5 -65.5q-21 -26 -53 -37q-22 -8 -71 -8l-28 0l0 78.5l15.5 0q47.5 0 64 13.5q16 13 19.5 46.5q1.5 58.5 2.5 116.5q0 107.5 23.5 153q23.5 45 81 72.5q-44 18.5 -68 52q-24 33 -32 88.5q-4.5 33.5 -4.5 158.5q0 65.5 -17 84.5q-17 18.5 -69 18.5l-15.5 0l0 78.5l28 0q43 0 62 -5.5q28 -8 46 -23q18 -15.5 30.5 -40.5q12 -25.5 16.5 -68l3 -110q0.5 -83.5 8.5 -117.5q8 -34.5 32.5 -54.5q24 -20 62.5 -21l0 -81.5q-38.5 -1 -62.5 -21" />
</g>
<g id="PathID_238" transform="matrix(0.0352941, 0, 0, 0.0352941, 288, 420)">
<path style="fill:#FFFFFF;fill-opacity:1" d="M114 -332.5q28 -14 60 -14q39.5 0 99 26.5q59 26.5 86.5 33.5q27 7 57 7q41 0 74 -13.5q32.5 -13.5 64.5 -43.5l0 -106q-27 29.5 -61.5 49q-35 19.5 -67.5 19.5l-34.5 -4.5l-52 -19q-61 -26 -94 -34.5q-33 -9 -63 -9q-86 0 -139 60l0 102.5q42 -40.5 70.5 -54" />
</g>
<g id="PathID_239" transform="matrix(0.0352941, 0, 0, 0.0352941, 336, 420)">
<path style="fill:#FFFFFF;fill-opacity:1" d="" />
</g>
<g id="PathID_240" transform="matrix(0.0352941, 0, 0, 0.0352941, 384, 420)">
<path style="fill:#FFFFFF;fill-opacity:1" d="M227 -597l102 0l-112.5 -140l-96 0l-108 140l103 0q28.5 -42.5 56.5 -85l55 85" />
</g>
<g id="PathID_241" transform="matrix(0.0352941, 0, 0, 0.0352941, 432, 420)">
<path style="fill:#FFFFFF;fill-opacity:1" d="M70 -609.5q-0.5 -23.5 10.5 -35.5q10.5 -12 27.5 -12q15.5 0 49 18q51.5 28 83 28q42 0 69.5 -28.5q27 -28.5 28.5 -85.5l-65 0q-3.5 26 -12 35q-8.5 8.5 -24.5 8.5q-17.5 0 -47 -15q-53.5 -27 -84.5 -27q-44.5 0 -73 31q-29 31 -28.5 83l66.5 0" />
</g>
<g id="PathID_242" transform="matrix(0.0352941, 0, 0, 0.0352941, 480, 420)">
<path style="fill:#FFFFFF;fill-opacity:1" d="M567.5 -229l0 -72.5l-569.5 0l0 72.5l569.5 0" />
</g>
<g id="PathID_243" transform="matrix(0.0352941, 0, 0, 0.0352941, 0, 468)">
<path style="fill:#FFFFFF;fill-opacity:1" d="M1024 -229l0 -72.5l-1024 0l0 72.5l1024 0" />
</g>
<g id="PathID_244" transform="matrix(0.0352941, 0, 0, 0.0352941, 48, 468)">
<path style="fill:#FFFFFF;fill-opacity:1" d="M113.5 -610q1.5 -43.5 14.5 -66q13 -23 40.5 -34.5l-22 -35q-45.5 20.5 -66.5 60.5q-16 30 -16 97l0 82.5l96.5 0l0 -104.5l-47 0" />
</g>
<g id="PathID_245" transform="matrix(0.0352941, 0, 0, 0.0352941, 96, 468)">
<path style="fill:#FFFFFF;fill-opacity:1" d="M109 -636q-1.5 41.5 -14.5 65.5q-13.5 23.5 -40.5 34.5q11 18 22 35.5q45.5 -20.5 67 -61q15.5 -29.5 15.5 -96.5l0 -82.5l-96.5 0l0 104.5l47 0" />
</g>
<g id="PathID_246" transform="matrix(0.0352941, 0, 0, 0.0352941, 144, 468)">
<path style="fill:#FFFFFF;fill-opacity:1" d="M109 0q-1.5 41.5 -14.5 65.5q-13.5 23.5 -40.5 34.5l22 35.5q45.5 -20.5 67 -61q15.5 -29.5 15.5 -96.5l0 -82.5l-96.5 0l0 104.5l47 0" />
</g>
<g id="PathID_247" transform="matrix(0.0352941, 0, 0, 0.0352941, 192, 468)">
<path style="fill:#FFFFFF;fill-opacity:1" d="M91 -610q1.5 -43.5 14.5 -66q13 -23 40.5 -34.5l-22 -35q-45.5 20.5 -66.5 60.5q-16 30 -16 97l0 82.5l96.5 0l0 -104.5l-47 0M246 -610q1.5 -43.5 14.5 -66q13 -23 40.5 -34.5l-22 -35q-45.5 20.5 -66.5 60.5q-16 30 -16 97l0 82.5l96.5 0l0 -104.5l-47 0" />
</g>
<g id="PathID_248" transform="matrix(0.0352941, 0, 0, 0.0352941, 240, 468)">
<path style="fill:#FFFFFF;fill-opacity:1" d="M90.5 -636q-1.5 41.5 -14.5 65.5q-13.5 23.5 -40.5 34.5l22 35.5q45.5 -20.5 67 -61q15.5 -29.5 15.5 -96.5l0 -82.5l-96.5 0l0 104.5l47 0M245.5 -636q-1.5 41.5 -14.5 65.5q-13.5 23.5 -40.5 34.5l22 35.5q45.5 -20.5 67 -61q15.5 -29.5 15.5 -96.5l0 -82.5l-96.5 0l0 104.5l47 0" />
</g>
<g id="PathID_249" transform="matrix(0.0352941, 0, 0, 0.0352941, 288, 468)">
<path style="fill:#FFFFFF;fill-opacity:1" d="M90.5 0q-1.5 41.5 -14.5 65.5q-13.5 23.5 -40.5 34.5l22 35.5q45.5 -20.5 67 -61q15.5 -29.5 15.5 -96.5l0 -82.5l-96.5 0l0 104.5l47 0M245.5 0q-1.5 41.5 -14.5 65.5q-13.5 23.5 -40.5 34.5l22 35.5q45.5 -20.5 67 -61q15.5 -29.5 15.5 -96.5l0 -82.5l-96.5 0l0 104.5l47 0" />
</g>
<g id="PathID_250" transform="matrix(0.0352941, 0, 0, 0.0352941, 336, 468)">
<path style="fill:#FFFFFF;fill-opacity:1" d="M326 173l0 -606l201 0l0 -80l-201 0l0 -203l-90 0l0 203l-199.5 0l0 80l199.5 0l0 606l90 0" />
</g>
<g id="PathID_251" transform="matrix(0.0352941, 0, 0, 0.0352941, 384, 468)">
<path style="fill:#FFFFFF;fill-opacity:1" d="M327.5 173l0 -185l201.5 0l0 -80.5l-201.5 0l0 -362.5l201.5 0l0 -80.5l-201.5 0l0 -187.5l-90 0l0 187.5l-201 0l0 80.5l201 0l0 362.5l-201 0l0 80.5l201 0l0 185l90 0" />
</g>
<g id="PathID_252" transform="matrix(0.0352941, 0, 0, 0.0352941, 432, 468)">
<path style="fill:#FFFFFF;fill-opacity:1" d="M92 -269q37 37 89 37q52.5 0 90 -37q37 -37.5 37 -90q0 -52.5 -37 -89.5q-37.5 -37 -90 -37q-52 0 -89 37q-37.5 37 -37.5 89.5q0 52.5 37.5 90" />
</g>
<g id="PathID_253" transform="matrix(0.0352941, 0, 0, 0.0352941, 480, 468)">
<path style="fill:#FFFFFF;fill-opacity:1" d="M222 0l0 -102.5l-102.5 0l0 102.5l102.5 0M563.5 0l0 -102.5l-102.5 0l0 102.5l102.5 0M905 0l0 -102.5l-103 0l0 102.5l103 0" />
</g>
<g id="PathID_254" transform="matrix(0.0352941, 0, 0, 0.0352941, 0, 516)">
<path style="fill:#FFFFFF;fill-opacity:1" d="M226 27l300 -772.5l-65.5 0q-150 386.5 -300.5 772.5l66 0M58.5 -400.5q40 46.5 104 46.5q73 0 108 -49.5q35 -50 35 -148q0 -97 -40 -142.5q-40 -45.5 -104 -45.5q-64.5 0 -103.5 45.5q-39.5 45 -39.5 144.5q0 102.5 40 149M115 -654.5q16.5 -23 47.5 -23q30 0 47 23.5q22 31.5 22 107.5q0 77.5 -21.5 107.5q-16 22.5 -45.5 22.5q-32.5 0 -52 -26.5q-20 -26.5 -20 -102.5q0 -77.5 22.5 -109M421.5 -19q40 46 104 46q73 0 108 -49.5q35 -49.5 35 -147.5q0 -97 -40 -142.5q-40.5 -45.5 -104.5 -45.5q-64 0 -103 45.5q-39.5 45 -39.5 144.5q0 102.5 40 149M478 -273q16.5 -23 47.5 -23q29.5 0 46.5 23.5q22.5 31 22.5 107.5q0 77 -21.5 107.5q-16 22.5 -45.5 22.5q-32.5 0 -52 -26.5q-20 -27 -20 -102.5q0 -78 22.5 -109M758.5 -19q40 46 104 46q73.5 0 108.5 -49.5q34.5 -49.5 34.5 -147.5q0 -97 -40 -142.5q-40 -45.5 -104 -45.5q-64.5 0 -103.5 45.5q-39.5 45 -39.5 144.5q0 102.5 40 149M815 -273q16.5 -23 47.5 -23q30 0 47 23.5q22 31 22 107.5q0 77 -21.5 107.5q-16 22.5 -45.5 22.5q-32.5 0 -52 -26.5q-20 -27 -20 -102.5q0 -78 22.5 -109" />
</g>
<g id="PathID_255" transform="matrix(0.0352941, 0, 0, 0.0352941, 48, 516)">
<path style="fill:#FFFFFF;fill-opacity:1" d="M278 -492l-74.5 0q-78.5 114.5 -157.5 228.5l157.5 227.5l74.5 0l-132.5 -227.5q66.5 -114 132.5 -228.5" />
</g>
<g id="PathID_256" transform="matrix(0.0352941, 0, 0, 0.0352941, 96, 516)">
<path style="fill:#FFFFFF;fill-opacity:1" d="M46 -36l74.5 0l152 -232l-152 -224l-74.5 0l132.5 227q-66 114.5 -132.5 229" />
</g>
<g id="PathID_257" transform="matrix(0.0352941, 0, 0, 0.0352941, 144, 516)">
<path style="fill:#FFFFFF;fill-opacity:1" d="M533.5 -612l20 -93q-63.5 -40.5 -156.5 -40.5q-97 0 -177.5 44q-130.5 71 -161.5 234l-58 0l-14 67l65.5 0q0 10.5 -0.5 20.5q1 23 1.5 45.5l-52.5 0l-14 67l76.5 0q11.5 54 27.5 92q79.5 188 305.5 188q75.5 0 138 -29l0 -103q-52.5 49 -146 49q-67 0 -124.5 -34.5q-80 -48 -101 -162.5l297.5 0l14 -67l-322 0q0 -23 -0.5 -46q0.5 -10 0.5 -20l335.5 0q7 -33.5 13.5 -67l-341 0q5 -41 33 -86.5q27.5 -44 61.5 -68q57 -40.5 141 -40.5q77.5 0 138.5 50.5" />
</g>
<g id="PathID_258" transform="matrix(0.0352941, 0, 0, 0.0352941, 192, 516)">
<path style="fill:#FFFFFF;fill-opacity:1" d="M312.5 -325.5l0 -347l133 0l0 -60.5l-333 0l0 60.5l132 0l0 347l68 0M553.5 -325.5l0 -347q55 173.5 109.5 347l61.5 0l105 -342l0 342l62 0l0 -407.5l-98 0q-49.5 163 -99.5 325.5l-103 -325.5l-100 0l0 407.5l62.5 0" />
</g>
</svg>
