<?xml version="1.0" encoding="utf-8"?>
<svg version="1.1" id="Layer_1"
xmlns="http://www.w3.org/2000/svg"
xmlns:xlink="http://www.w3.org/1999/xlink"
xmlns:author="http://www.sothink.com"
width="164px" height="212px"
xml:space="preserve">
<g id="PathID_137" transform="matrix(0.0352941, 0, 0, 0.0352941, 0, 37.8)">
<path style="fill:#FFFFFF;fill-opacity:1" d="M60 -63.5q10.5 24.5 29.5 42q19 17.5 44 27.5q25 10.5 53 10.5q26.5 0 50.5 -10.5q24 -10 42.5 -27.5q18.5 -17.5 29 -42q11 -24.5 11 -52q0 -28 -11 -52q-10.5 -24 -29 -42q-18.5 -18 -42.5 -28.5q-24 -11 -50.5 -11q-28 0 -53 11q-25 10.5 -44 28.5q-19 18 -29.5 42q-11 24 -11 52q0 27.5 11 52" />
</g>
<g id="PathID_138" transform="matrix(0.0352941, 0, 0, 0.0352941, 48, 37.8)">
<path style="fill:#FFFFFF;fill-opacity:1" d="M67.5 0l486.5 0l0 -210l-240.5 0l0 -515l-246 0l0 725" />
</g>
<g id="PathID_139" transform="matrix(0.0352941, 0, 0, 0.0352941, 96, 37.8)">
<path style="fill:#FFFFFF;fill-opacity:1" d="M355.5 -223l0 18q0 34 -20.5 55.5q-20.5 21.5 -54.5 21.5l-18 -2.5q-9 -4 -18 -7.5l-13 -13l-5 -19q0 -30.5 31.5 -42q32 -11 84 -11l13.5 0M340 -340q-53 0 -109 7q-56 7.5 -101 27.5q-45 20 -74 55q-15 18 -22 40.5q-7.5 23 -7.5 51.5q0 48 17.5 80.5q17.5 33 44.5 53.5q27 20.5 60.5 29.5q33.5 9.5 65 9.5q36 0 73.5 -13.5q38 -13.5 58.5 -44l2 0l0 43l214 0l0 -283.5q0 -56.5 -11.5 -106.5q-12 -50.5 -41 -88q-14.5 -19 -34.5 -34q-20 -15 -45 -25.5q-50 -21.5 -127 -21.5q-35.5 0 -70.5 6.5q-35 6 -68.5 19q-67.5 25.5 -117 72.5l118 117q22.5 -18.5 51.5 -32.5q29.5 -13.5 62 -13.5q27.5 0 44.5 11.5q17 12 17 36.5l0 2" />
</g>
<g id="PathID_140" transform="matrix(0.0352941, 0, 0, 0.0352941, 0, 84)">
<path style="fill:#FFFFFF;fill-opacity:1" d="M48.5 -167q16 51.5 46.5 91.5q31 40.5 77 65.5q23 12 49.5 18q27 6.5 57 6.5q50 0 95.5 -19q45 -19 68.5 -52l2 0l0 56.5l213 0l0 -774l-236.5 0l0 278.5l-2 0q-24 -28 -62.5 -42.5q-39 -15 -78 -15q-30 0 -57 6q-26.5 6.5 -49.5 18.5q-46 24.5 -77 64.5q-30.5 40 -46.5 90q-15.5 50.5 -15.5 102.5q0 53.5 15.5 104.5M274.5 -334q22.5 -26.5 65.5 -26.5q42 0 67 26.5q25 27 25 62.5q0 38 -25 64.5q-25 27 -67 27q-43 0 -65.5 -26.5q-22.5 -26 -22.5 -65q0 -35.5 22.5 -62.5" />
</g>
<g id="PathID_141" transform="matrix(0.0352941, 0, 0, 0.0352941, 48, 84)">
<path style="fill:#FFFFFF;fill-opacity:1" d="M47.5 -168q15 49 45.5 86.5q31 37.5 77 59.5q23 11 50 16.5l58.5 5.5q49 0 87.5 -17.5q38.5 -17.5 58 -40l3 0l0 23.5q0 25 -10 43.5q-10.5 19 -28 32q-17.5 13 -40.5 19.5q-23 6.5 -48.5 6.5q-39 0 -82 -13.5q-43 -14 -82 -44l-103 157q57 39 134 59q76.5 20 153.5 20q62.5 0 123 -14q60.5 -14 108 -48q23.5 -17.5 43 -40.5q19 -23 33 -52.5q14.5 -29 21.5 -65.5q7.5 -37 7.5 -81l0 -483l-222.5 0l0 54l-3 0q-26.5 -35.5 -68 -52q-41.5 -16.5 -84.5 -16.5q-30 0 -57 6q-26.5 6.5 -49.5 18.5q-46 24.5 -77 64.5q-30.5 40 -46.5 90q-15.5 50.5 -15.5 102.5q0 54.5 14.5 103.5M274.5 -334q22.5 -26.5 65.5 -26.5q42 0 67 26.5q25 27 25 62.5q0 38 -25 64.5q-25 27 -67 27q-43 0 -65.5 -26.5q-22.5 -26 -22.5 -65q0 -35.5 22.5 -62.5" />
</g>
<g id="PathID_142" transform="matrix(0.0352941, 0, 0, 0.0352941, 96, 84)">
<path style="fill:#FFFFFF;fill-opacity:1" d="M55.5 0l236.5 0l0 -538.5l-236.5 0l0 538.5M61 -646.5q9.5 22 26.5 37.5q17 16 39.5 25.5q22.5 9 48 9q24.5 0 46 -9q21.5 -9.5 38.5 -25.5q17 -15.5 26.5 -37.5q10 -22 10 -48q0 -24.5 -10 -46.5q-9.5 -22 -26.5 -38.5q-17 -16 -38.5 -26q-21.5 -9.5 -46 -9.5q-25.5 0 -48 9.5q-22.5 10 -39.5 26q-17 16.5 -26.5 38.5q-10 22 -10 46.5q0 26 10 48" />
</g>
<g id="PathID_143" transform="matrix(0.0352941, 0, 0, 0.0352941, 0, 132)">
<path style="fill:#FFFFFF;fill-opacity:1" d="M54.5 0l236.5 0l0 -286.5q0 -36 14.5 -55q15 -19 38.5 -19q25.5 0 38.5 16.5q13 16.5 13 57.5l0 286.5l236.5 0l0 -327.5q0 -40 -9 -80q-8.5 -40 -30.5 -72q-22 -32.5 -59 -53q-37.5 -20.5 -93.5 -20.5q-52 0 -92.5 22q-40.5 22 -61 52l-2 0l0 -59.5l-230 0l0 538.5" />
</g>
<g id="PathID_144" transform="matrix(0.0352941, 0, 0, 0.0352941, 48, 132)">
<path style="fill:#FFFFFF;fill-opacity:1" d="M622 -393.5q-25 -54 -67.5 -91q-61 -43 -98.5 -55.5q-55.5 -19 -117 -19q-60.5 0 -116.5 19q-69.5 31 -97.5 55.5q-42 37 -67 91q-12.5 26.5 -19 57q-6 31 -6 65q0 35 6 66q6.5 31 19 58q25 54.5 67 91.5q42 37.5 97.5 57q56 19.5 116.5 19.5q61.5 0 117 -19.5q56 -19.5 98.5 -57q42.5 -37 67.5 -91.5q25 -54 25 -124q0 -34 -6 -65q-6.5 -30.5 -19 -57M403 -333q25 27 25 62.5q0 38 -24.5 64.5q-24.5 27 -63.5 27q-39 0 -63.5 -27q-24.5 -26.5 -24.5 -64.5q0 -35.5 24 -62.5q24 -26.5 63 -26.5q39 0 64 26.5" />
</g>
</svg>
